<svg width="25" height="24" viewBox="0 0 25 24" fill="none" xmlns="http://www.w3.org/2000/svg">
<path d="M21.4999 9.00003H20.0799L16.3679 2.50403L14.6319 3.49603L17.7769 9.00003H7.2229L10.3689 3.49603L8.6319 2.50403L4.9199 9.00003H3.4999C3.34619 9.0002 3.19459 9.03576 3.05685 9.10396C2.9191 9.17216 2.79891 9.27116 2.7056 9.3933C2.61228 9.51543 2.54834 9.65741 2.51874 9.80824C2.48914 9.95907 2.49467 10.1147 2.5349 10.263L5.3339 20.527C5.45025 20.9498 5.70201 21.3228 6.05059 21.5889C6.39918 21.8549 6.82538 21.9993 7.2639 22H17.7369C18.6349 22 19.4289 21.395 19.6669 20.525L22.4659 10.262C22.5066 10.1136 22.5124 9.95783 22.483 9.8068C22.4535 9.65577 22.3895 9.51361 22.2959 9.39141C22.2024 9.26922 22.0819 9.17031 21.9438 9.10242C21.8057 9.03452 21.6538 8.99948 21.4999 9.00003ZM17.7359 20H7.2639L4.8099 11H20.1899L17.7359 20Z" fill="#121212"/>
<path d="M9.5 13H11.5V18H9.5V13ZM13.5 13H15.5V18H13.5V13Z" fill="#121212"/>
</svg>
