<svg width="52" height="52" viewBox="0 0 52 52" fill="none" xmlns="http://www.w3.org/2000/svg">
<rect width="52" height="52" rx="4" fill="#F7D1DE"/>
<path d="M45 26.001C45 24.8075 44.5259 23.6629 43.682 22.819C42.8381 21.9751 41.6935 21.501 40.5 21.501H27V19.8135C28.2875 19.4791 29.4277 18.727 30.242 17.6752C31.0563 16.6234 31.4987 15.3312 31.5 14.001C31.5 8.75097 26.5425 5.39285 26.3325 5.25222C26.086 5.08777 25.7963 5 25.5 5C25.2037 5 24.914 5.08777 24.6675 5.25222C24.4575 5.39285 19.5 8.75097 19.5 14.001C19.5013 15.3312 19.9437 16.6234 20.758 17.6752C21.5723 18.727 22.7125 19.4791 24 19.8135V21.501H10.5C9.30653 21.501 8.16193 21.9751 7.31802 22.819C6.47411 23.6629 6 24.8075 6 26.001V30.3754C6.00154 32.0117 6.52723 33.6045 7.5 34.9204V42.501C7.5 43.6945 7.97411 44.839 8.81802 45.683C9.66193 46.5269 10.8065 47.001 12 47.001H39C40.1935 47.001 41.3381 46.5269 42.182 45.683C43.0259 44.839 43.5 43.6945 43.5 42.501V34.9204C44.4728 33.6045 44.9985 32.0117 45 30.3754V26.001ZM22.5 14.001C22.5 11.4566 24.375 9.41472 25.5 8.41535C26.625 9.41472 28.5 11.4566 28.5 14.001C28.5 14.7966 28.1839 15.5597 27.6213 16.1223C27.0587 16.6849 26.2957 17.001 25.5 17.001C24.7043 17.001 23.9413 16.6849 23.3787 16.1223C22.8161 15.5597 22.5 14.7966 22.5 14.001ZM9 26.001C9 25.6031 9.15804 25.2216 9.43934 24.9403C9.72064 24.659 10.1022 24.501 10.5 24.501H40.5C40.8978 24.501 41.2794 24.659 41.5607 24.9403C41.842 25.2216 42 25.6031 42 26.001V30.3754C42 32.8597 40.0387 34.9335 37.6275 34.9991C37.0261 35.0161 36.4273 34.9124 35.8667 34.694C35.306 34.4756 34.7949 34.147 34.3634 33.7277C33.932 33.3083 33.5891 32.8067 33.3549 32.2524C33.1207 31.6982 33 31.1026 33 30.501C33 30.1032 32.842 29.7216 32.5607 29.4403C32.2794 29.159 31.8978 29.001 31.5 29.001C31.1022 29.001 30.7206 29.159 30.4393 29.4403C30.158 29.7216 30 30.1032 30 30.501C30 31.6945 29.5259 32.839 28.682 33.683C27.8381 34.5269 26.6935 35.001 25.5 35.001C24.3065 35.001 23.1619 34.5269 22.318 33.683C21.4741 32.839 21 31.6945 21 30.501C21 30.1032 20.842 29.7216 20.5607 29.4403C20.2794 29.159 19.8978 29.001 19.5 29.001C19.1022 29.001 18.7206 29.159 18.4393 29.4403C18.158 29.7216 18 30.1032 18 30.501C18.0002 31.1028 17.8798 31.6986 17.6457 32.253C17.4116 32.8075 17.0687 33.3093 16.6372 33.7289C16.2058 34.1485 15.6945 34.4772 15.1338 34.6957C14.573 34.9142 13.9741 35.018 13.3725 35.001C10.9613 34.9335 9 32.8597 9 30.3754V26.001ZM39 44.001H12C11.6022 44.001 11.2206 43.8429 10.9393 43.5616C10.658 43.2803 10.5 42.8988 10.5 42.501V37.356C11.378 37.7538 12.3264 37.9731 13.29 38.001C14.2925 38.0322 15.2909 37.8604 16.2253 37.496C17.1597 37.1315 18.0108 36.582 18.7275 35.8804C19.0073 35.6076 19.2656 35.3136 19.5 35.001C20.1986 35.9324 21.1045 36.6885 22.1459 37.2092C23.1873 37.7299 24.3357 38.001 25.5 38.001C26.6643 38.001 27.8127 37.7299 28.8541 37.2092C29.8955 36.6885 30.8014 35.9324 31.5 35.001C31.7352 35.3124 31.9941 35.6051 32.2744 35.8766C33.6698 37.2434 35.5468 38.0064 37.5 38.001H37.7137C38.676 37.9726 39.6231 37.7534 40.5 37.356V42.501C40.5 42.8988 40.342 43.2803 40.0607 43.5616C39.7794 43.8429 39.3978 44.001 39 44.001Z" fill="#121212"/>
</svg>
