<svg width="52" height="52" viewBox="0 0 52 52" fill="none" xmlns="http://www.w3.org/2000/svg">
<rect width="52" height="52" rx="4" fill="#BFF3EE"/>
<path d="M47.5413 24.9505L42.827 14.4271C42.7067 14.1554 42.5055 13.9235 42.2484 13.7604C41.9913 13.5974 41.6897 13.5103 41.3813 13.51H36.667V10.5033C36.667 10.1046 36.5014 9.72225 36.2067 9.44032C35.912 9.15839 35.5123 9 35.0956 9H5.23842C4.82165 9 4.42195 9.15839 4.12725 9.44032C3.83255 9.72225 3.66699 10.1046 3.66699 10.5033V36.0603C3.66699 36.459 3.83255 36.8414 4.12725 37.1233C4.42195 37.4052 4.82165 37.5636 5.23842 37.5636H8.60128C8.96315 38.8375 9.75314 39.9621 10.8494 40.7638C11.9456 41.5656 13.2871 42 14.667 42C16.0469 42 17.3884 41.5656 18.4846 40.7638C19.5808 39.9621 20.3708 38.8375 20.7327 37.5636H30.6013C30.9631 38.8375 31.7531 39.9621 32.8494 40.7638C33.9456 41.5656 35.2871 42 36.667 42C38.0469 42 39.3884 41.5656 40.4846 40.7638C41.5808 39.9621 42.3708 38.8375 42.7327 37.5636H46.0956C46.5123 37.5636 46.912 37.4052 47.2067 37.1233C47.5014 36.8414 47.667 36.459 47.667 36.0603V25.5368C47.6666 25.3353 47.6238 25.1359 47.5413 24.9505ZM36.667 16.5167H40.3441L43.707 24.0335H36.667V16.5167ZM14.667 39.067C14.0454 39.067 13.4378 38.8906 12.9209 38.5602C12.4041 38.2299 12.0012 37.7603 11.7634 37.2109C11.5255 36.6615 11.4633 36.0569 11.5845 35.4737C11.7058 34.8905 12.0051 34.3547 12.4447 33.9342C12.8842 33.5137 13.4442 33.2274 14.0539 33.1113C14.6635 32.9953 15.2954 33.0549 15.8697 33.2824C16.444 33.51 16.9348 33.8954 17.2802 34.3898C17.6255 34.8843 17.8098 35.4656 17.8098 36.0603C17.8098 36.8577 17.4787 37.6225 16.8893 38.1863C16.2999 38.7502 15.5005 39.067 14.667 39.067ZM30.6013 34.5569H20.7327C20.3708 33.283 19.5808 32.1585 18.4846 31.3567C17.3884 30.5549 16.0469 30.1205 14.667 30.1205C13.2871 30.1205 11.9456 30.5549 10.8494 31.3567C9.75314 32.1585 8.96315 33.283 8.60128 34.5569H6.80985V12.0067H33.5241V30.8888C32.8086 31.2861 32.182 31.8146 31.6805 32.4441C31.1789 33.0736 30.8122 33.7916 30.6013 34.5569ZM36.667 39.067C36.0454 39.067 35.4378 38.8906 34.9209 38.5602C34.4041 38.2299 34.0012 37.7603 33.7634 37.2109C33.5255 36.6615 33.4633 36.0569 33.5845 35.4737C33.7058 34.8905 34.0051 34.3547 34.4447 33.9342C34.8842 33.5137 35.4442 33.2274 36.0539 33.1113C36.6635 32.9953 37.2954 33.0549 37.8697 33.2824C38.444 33.51 38.9348 33.8954 39.2802 34.3898C39.6255 34.8843 39.8098 35.4656 39.8098 36.0603C39.8098 36.8577 39.4787 37.6225 38.8893 38.1863C38.2999 38.7502 37.5005 39.067 36.667 39.067ZM44.5241 34.5569H42.7327C42.3852 33.2693 41.6014 32.1283 40.5039 31.3122C39.4063 30.4962 38.057 30.0512 36.667 30.0469V27.0402H44.5241V34.5569Z" fill="#121212"/>
</svg>
