<svg width="52" height="52" viewBox="0 0 52 52" fill="none" xmlns="http://www.w3.org/2000/svg">
<rect width="52" height="52" rx="4" fill="#CDDAFA"/>
<path d="M12.91 40.0703C11.3687 38.519 10.165 36.7352 9.29901 34.7189C8.433 32.7026 8 30.618 8 28.465C8 26.3059 8.41267 24.1635 9.23802 22.0381C10.0634 19.9126 11.3967 17.9275 13.2379 16.0828C14.5691 14.7491 16.2359 13.6506 18.2384 12.7872C20.2408 11.9238 22.5087 11.2661 25.0422 10.814C27.5757 10.362 30.3368 10.0987 33.3257 10.0244C36.3146 9.94993 39.4499 10.0461 42.7316 10.3128C42.967 13.4519 43.0476 16.5018 42.9733 19.4626C42.899 22.4233 42.6405 25.1841 42.1977 27.7448C41.7549 30.3055 41.1082 32.6114 40.2576 34.6624C39.4071 36.7136 38.312 38.4102 36.9724 39.7523C35.1676 41.5745 33.2374 42.9047 31.1817 43.7428C29.1261 44.5809 27.0441 45 24.9357 45C22.7254 45 20.5539 44.5662 18.4212 43.6986C16.2885 42.831 14.4514 41.6215 12.91 40.0703ZM17.8116 39.7102C18.9102 40.4009 20.0711 40.9077 21.2944 41.2306C22.5177 41.5535 23.7333 41.715 24.9412 41.715C26.6266 41.715 28.2937 41.3808 29.9424 40.7126C31.5912 40.0443 33.1554 38.9549 34.6352 37.4443C35.2883 36.7873 35.9505 35.8657 36.6218 34.6794C37.2931 33.4931 37.8737 31.9418 38.3636 30.0255C38.8535 28.1092 39.2254 25.7913 39.4794 23.072C39.7334 20.3527 39.7834 17.1132 39.6292 13.3536C37.844 13.2806 35.8241 13.2602 33.5695 13.2925C31.3149 13.3248 29.0658 13.5087 26.8224 13.8443C24.579 14.1798 22.4589 14.7055 20.462 15.4215C18.4653 16.1375 16.8503 17.1132 15.6172 18.3486C13.9917 19.9771 12.8623 21.626 12.229 23.2952C11.5956 24.9645 11.2789 26.5474 11.2789 28.0439C11.2789 30.1132 11.6818 31.9846 12.4875 33.658C13.2932 35.3315 14.1319 36.574 15.0035 37.3854C16.2253 34.6338 17.9426 31.9938 20.1551 29.4654C22.3677 26.937 25.1709 24.7308 28.5648 22.8468C25.9977 25.0902 23.7991 27.554 21.9691 30.2382C20.139 32.9224 18.7532 36.0797 17.8116 39.7102Z" fill="#121212"/>
</svg>
