<svg width="24" height="25" viewBox="0 0 24 25" fill="none" xmlns="http://www.w3.org/2000/svg">
<path d="M20.9999 9.49991H19.5799L15.8679 3.00391L14.1319 3.99591L17.2769 9.49991H6.7229L9.8689 3.99591L8.1319 3.00391L4.4199 9.49991H2.9999C2.84619 9.50008 2.69459 9.53564 2.55685 9.60384C2.4191 9.67204 2.29891 9.77104 2.2056 9.89318C2.11228 10.0153 2.04834 10.1573 2.01874 10.3081C1.98914 10.4589 1.99467 10.6146 2.0349 10.7629L4.8339 21.0269C4.95025 21.4497 5.20201 21.8227 5.55059 22.0887C5.89918 22.3548 6.32538 22.4992 6.7639 22.4999H17.2369C18.1349 22.4999 18.9289 21.8949 19.1669 21.0249L21.9659 10.7619C22.0066 10.6135 22.0124 10.4577 21.983 10.3067C21.9535 10.1556 21.8895 10.0135 21.7959 9.89129C21.7024 9.7691 21.5819 9.67019 21.4438 9.6023C21.3057 9.5344 21.1538 9.49936 20.9999 9.49991ZM17.2359 20.4999H6.7639L4.3099 11.4999H19.6899L17.2359 20.4999Z" fill="#121212"/>
<path d="M9 13.5H11V18.5H9V13.5ZM13 13.5H15V18.5H13V13.5Z" fill="#121212"/>
</svg>
