<svg width="203" height="68" viewBox="0 0 203 68" fill="none" xmlns="http://www.w3.org/2000/svg">
<path d="M7 50C5.61867 50 4.57333 49.8133 3.864 49.44C3.192 49.0667 2.744 48.6373 2.52 48.152C2.296 47.6667 2.184 47.2373 2.184 46.864C2.184 46.4907 2.184 46.304 2.184 46.304L1.512 22C1.512 22 1.49333 21.8133 1.456 21.44C1.41867 21.0667 1.49333 20.6373 1.68 20.152C1.86667 19.6293 2.25867 19.1813 2.856 18.808C3.45333 18.3973 4.38667 18.192 5.656 18.192C7.336 18.1547 8.60533 18.3973 9.464 18.92C10.3227 19.4053 10.8827 19.9093 11.144 20.432C11.4427 20.9173 11.592 21.16 11.592 21.16L18.032 32.864C18.032 32.864 18.1813 32.528 18.48 31.856C18.816 31.1467 19.208 30.2693 19.656 29.224C20.1413 28.1787 20.6267 27.1147 21.112 26.032C21.5973 24.9493 22.0267 24.016 22.4 23.232C22.7733 22.4107 23.016 21.888 23.128 21.664C23.3147 21.2907 23.6507 20.7867 24.136 20.152C24.6213 19.48 25.312 18.864 26.208 18.304C27.1413 17.744 28.3547 17.4453 29.848 17.408C30.968 17.3707 31.8267 17.5013 32.424 17.8C33.0213 18.0613 33.432 18.3787 33.656 18.752C33.9173 19.1253 34.0667 19.4613 34.104 19.76C34.1413 20.0587 34.16 20.208 34.16 20.208C34.16 20.208 34.16 20.6933 34.16 21.664C34.16 22.5973 34.16 23.848 34.16 25.416C34.1973 26.984 34.216 28.7013 34.216 30.568C34.216 32.4347 34.216 34.32 34.216 36.224C34.216 38.0907 34.216 39.808 34.216 41.376C34.2533 42.944 34.272 44.2133 34.272 45.184C34.272 46.1547 34.272 46.6587 34.272 46.696C34.272 46.7333 34.2533 46.92 34.216 47.256C34.216 47.592 34.0853 47.984 33.824 48.432C33.5627 48.8427 33.096 49.216 32.424 49.552C31.7893 49.8507 30.8373 50 29.568 50C28.2987 50 27.328 49.8693 26.656 49.608C26.0213 49.3093 25.5733 48.992 25.312 48.656C25.0507 48.2827 24.9013 47.9653 24.864 47.704C24.8267 47.4427 24.808 47.312 24.808 47.312C24.808 47.312 24.808 46.9947 24.808 46.36C24.808 45.688 24.808 44.8667 24.808 43.896C24.8453 42.888 24.864 41.8987 24.864 40.928C24.9013 39.92 24.92 39.08 24.92 38.408C24.92 37.736 24.92 37.4 24.92 37.4L25.368 29.392L22.456 35.608C22.456 35.608 22.344 35.8133 22.12 36.224C21.9333 36.6347 21.56 37.0453 21 37.456C20.44 37.8667 19.6 38.0907 18.48 38.128C17.3973 38.1653 16.5387 38.016 15.904 37.68C15.3067 37.3067 14.8773 36.952 14.616 36.616C14.392 36.2427 14.28 36.056 14.28 36.056L10.64 29.392C10.64 29.392 10.6587 29.84 10.696 30.736C10.7707 31.5947 10.8453 32.7333 10.92 34.152C10.9947 35.5333 11.0693 37.008 11.144 38.576C11.2187 40.1067 11.2747 41.5627 11.312 42.944C11.3867 44.288 11.4427 45.3707 11.48 46.192C11.5173 47.2 11.312 47.984 10.864 48.544C10.416 49.0667 9.89333 49.44 9.296 49.664C8.69867 49.8507 8.15733 49.9627 7.672 50C7.224 50 7 50 7 50Z" fill="url(#paint0_linear_501_115)"/>
<path d="M39.416 46.36C39.2667 44.1573 39.0987 41.8613 38.912 39.472C38.7253 37.0453 38.5387 34.7307 38.352 32.528C38.2027 30.3253 38.072 28.4587 37.96 26.928C37.848 25.36 37.7547 24.352 37.68 23.904C37.568 23.0453 37.6053 22.4667 37.792 22.168C38.016 21.832 38.128 21.664 38.128 21.664C38.128 21.664 37.9973 21.5333 37.736 21.272C37.4747 20.9733 37.344 20.656 37.344 20.32C37.344 19.7227 37.6987 19.2373 38.408 18.864C39.1547 18.4907 39.9947 18.2107 40.928 18.024C41.8613 17.8373 42.6827 17.7067 43.392 17.632C44.1387 17.5573 44.512 17.52 44.512 17.52C44.512 17.52 44.8853 17.5013 45.632 17.464C46.3787 17.4267 47.3307 17.464 48.488 17.576C49.6827 17.688 50.952 17.9867 52.296 18.472C53.6773 18.92 54.984 19.648 56.216 20.656C57.4853 21.664 58.5493 23.0453 59.408 24.8C60.2667 26.5173 60.7893 28.72 60.976 31.408C61.2 34.5813 61.0507 37.2507 60.528 39.416C60.0427 41.5813 59.296 43.3547 58.288 44.736C57.3173 46.08 56.1973 47.1253 54.928 47.872C53.6587 48.6187 52.3333 49.1413 50.952 49.44C49.608 49.7013 48.32 49.8693 47.088 49.944C45.8933 49.9813 44.848 50 43.952 50C42.6453 50 41.656 49.8133 40.984 49.44C40.3493 49.0667 39.92 48.656 39.696 48.208C39.5093 47.7227 39.416 47.2933 39.416 46.92C39.416 46.5467 39.416 46.36 39.416 46.36ZM45.408 22.56L47.872 45.24C47.872 45.24 48.04 45.2213 48.376 45.184C48.712 45.1467 49.1227 44.9787 49.608 44.68C50.1307 44.3813 50.616 43.84 51.064 43.056C51.5493 42.272 51.9227 41.1707 52.184 39.752C52.4453 38.296 52.5013 36.4107 52.352 34.096C52.2027 31.184 51.8853 28.9253 51.4 27.32C50.952 25.6773 50.392 24.5013 49.72 23.792C49.0853 23.0827 48.3947 22.672 47.648 22.56C46.9013 22.448 46.1547 22.448 45.408 22.56Z" fill="url(#paint1_linear_501_115)"/>
<path d="M85.886 30.854L85.67 31.52C85.358 31.544 85.124 31.556 84.968 31.556C84.248 31.556 83.66 31.25 83.204 30.638C82.76 30.038 82.538 29.252 82.538 28.28C82.538 27.692 82.67 26.582 82.934 24.95C83.21 23.306 83.528 21.806 83.888 20.45C83.96 20.15 83.996 19.952 83.996 19.856C83.996 19.76 83.954 19.712 83.87 19.712C83.786 19.712 83.516 20.162 83.06 21.062C82.616 21.95 82.082 23.048 81.458 24.356C80.834 25.652 80.474 26.396 80.378 26.588C80.294 26.768 80.222 26.918 80.162 27.038C80.114 27.146 80.006 27.35 79.838 27.65C79.682 27.938 79.532 28.196 79.388 28.424C78.992 29.024 78.68 29.324 78.452 29.324C78.296 29.324 78.122 29.282 77.93 29.198C77.75 29.114 77.63 29.024 77.57 28.928C77.438 28.724 77.372 28.088 77.372 27.02C77.372 24.788 77.552 22.658 77.912 20.63C78.032 19.958 78.092 19.604 78.092 19.568C78.092 19.448 78.044 19.388 77.948 19.388C77.756 19.388 77.45 19.988 77.03 21.188L76.508 22.682C75.74 24.854 74.96 26.546 74.168 27.758C73.388 28.97 72.488 29.822 71.468 30.314L71 29.324C72.164 28.46 73.058 27.578 73.682 26.678C74.318 25.778 75.008 24.326 75.752 22.322L76.364 20.684C76.784 19.544 77.15 18.734 77.462 18.254C77.774 17.762 78.122 17.516 78.506 17.516C79.142 17.516 79.46 17.9 79.46 18.668C79.46 18.728 79.346 19.946 79.118 22.322C78.89 24.686 78.776 26.246 78.776 27.002C78.776 27.218 78.812 27.332 78.884 27.344C78.944 27.344 79.01 27.284 79.082 27.164C80.054 25.544 80.984 23.78 81.872 21.872C81.98 21.632 82.166 21.218 82.43 20.63C82.694 20.042 82.952 19.52 83.204 19.064C83.456 18.608 83.648 18.332 83.78 18.236C83.912 18.128 84.122 18.074 84.41 18.074C84.698 18.074 84.944 18.182 85.148 18.398C85.364 18.602 85.472 18.848 85.472 19.136C85.472 19.424 85.43 19.754 85.346 20.126C84.41 24.698 83.942 27.434 83.942 28.334C83.942 29.222 84.086 29.828 84.374 30.152C84.662 30.488 85.166 30.722 85.886 30.854ZM94.9726 27.182L95.3866 27.488C95.2186 27.848 94.9066 28.19 94.4506 28.514C94.0066 28.838 93.5986 29 93.2266 29C92.5186 29 92.1646 28.628 92.1646 27.884C92.1646 27.536 92.2546 27.122 92.4346 26.642L91.7686 27.326C91.1206 27.986 90.5566 28.43 90.0766 28.658C89.6086 28.886 89.1466 29 88.6906 29C88.2346 29 87.8866 28.874 87.6466 28.622C87.4186 28.358 87.3046 27.998 87.3046 27.542C87.3046 26.702 87.6286 25.874 88.2766 25.058C88.9246 24.23 89.7526 23.558 90.7606 23.042C91.7686 22.526 92.7766 22.262 93.7846 22.25L93.8206 22.844L93.0646 23.006C91.9726 23.246 91.0066 23.726 90.1666 24.446C89.3386 25.166 88.9246 25.886 88.9246 26.606C88.9246 27.314 89.2126 27.668 89.7886 27.668C90.3286 27.668 90.9946 27.29 91.7866 26.534C92.5786 25.778 93.2386 24.89 93.7666 23.87L94.5226 24.32C93.7786 25.82 93.4066 26.774 93.4066 27.182C93.4066 27.35 93.4606 27.494 93.5686 27.614C93.6886 27.722 93.8026 27.776 93.9106 27.776C94.0306 27.776 94.1086 27.77 94.1446 27.758C94.1806 27.746 94.2166 27.734 94.2526 27.722C94.2886 27.698 94.3306 27.668 94.3786 27.632C94.4386 27.596 94.4866 27.56 94.5226 27.524C94.5706 27.488 94.6426 27.434 94.7386 27.362C94.8346 27.29 94.9126 27.23 94.9726 27.182ZM103.383 26.894L103.761 27.2C103.557 27.704 103.233 28.13 102.789 28.478C102.357 28.826 101.961 29 101.601 29C101.253 29 100.977 28.88 100.773 28.64C100.569 28.388 100.467 28.064 100.467 27.668C100.467 27.272 100.533 26.762 100.665 26.138C100.101 27.026 99.4953 27.722 98.8473 28.226C98.1993 28.73 97.6533 28.982 97.2093 28.982C96.5373 28.982 96.2013 28.58 96.2013 27.776C96.2013 26.972 96.4773 25.892 97.0293 24.536C97.5933 23.168 97.9953 22.388 98.2353 22.196L99.0993 22.574C98.6073 23.366 98.2353 24.146 97.9833 24.914C97.7313 25.682 97.6053 26.198 97.6053 26.462C97.6053 26.714 97.6833 26.918 97.8393 27.074C98.0073 27.23 98.1993 27.308 98.4153 27.308C98.8953 27.308 99.4893 26.87 100.197 25.994C100.917 25.106 101.649 23.786 102.393 22.034L103.311 22.448C103.287 22.544 103.011 23.24 102.483 24.536C101.967 25.832 101.709 26.612 101.709 26.876C101.709 27.128 101.763 27.32 101.871 27.452C101.991 27.584 102.105 27.65 102.213 27.65C102.333 27.65 102.423 27.644 102.483 27.632C102.543 27.62 102.603 27.596 102.663 27.56C102.723 27.524 102.771 27.494 102.807 27.47C102.855 27.446 102.909 27.404 102.969 27.344L103.113 27.2C103.137 27.176 103.179 27.128 103.239 27.056C103.311 26.972 103.359 26.918 103.383 26.894ZM102.339 20.036L102.879 20.324C102.639 20.696 102.327 21.026 101.943 21.314C101.571 21.602 101.199 21.746 100.827 21.746C100.455 21.746 100.065 21.608 99.6573 21.332C99.2493 21.044 98.9193 20.756 98.6673 20.468L99.2433 19.982C99.8673 20.594 100.377 20.9 100.773 20.9C101.385 20.9 101.907 20.612 102.339 20.036ZM109.935 26.444L110.367 26.804C110.079 27.464 109.617 27.992 108.981 28.388C108.345 28.784 107.727 28.982 107.127 28.982C106.539 28.982 106.047 28.796 105.651 28.424C105.267 28.052 105.075 27.542 105.075 26.894C105.075 26.246 105.357 25.544 105.921 24.788C106.485 24.032 107.211 23.408 108.099 22.916C108.999 22.424 109.881 22.178 110.745 22.178C110.865 22.178 111.045 22.19 111.285 22.214L111.231 22.916C109.911 22.976 108.813 23.378 107.937 24.122C107.073 24.866 106.641 25.658 106.641 26.498C106.641 26.846 106.749 27.128 106.965 27.344C107.181 27.56 107.463 27.668 107.811 27.668C108.363 27.668 109.071 27.26 109.935 26.444ZM123.448 26.66L123.826 27.02C123.142 28.244 122.356 28.856 121.468 28.856C121.108 28.856 120.826 28.76 120.622 28.568C120.43 28.364 120.334 28.1 120.334 27.776C120.334 27.44 120.532 26.87 120.928 26.066C121.324 25.262 121.534 24.65 121.558 24.23C121.57 24.038 121.51 23.882 121.378 23.762C121.258 23.642 121.09 23.582 120.874 23.582C120.658 23.582 120.436 23.636 120.208 23.744C119.992 23.84 119.776 24.002 119.56 24.23C119.356 24.458 119.164 24.68 118.984 24.896C118.816 25.112 118.624 25.418 118.408 25.814C118.204 26.21 118.03 26.54 117.886 26.804C117.634 27.296 117.274 28.034 116.806 29.018L115.726 28.64C115.726 28.604 115.924 27.926 116.32 26.606C116.716 25.286 116.914 24.5 116.914 24.248C116.914 23.996 116.854 23.816 116.734 23.708C116.614 23.588 116.464 23.528 116.284 23.528C115.744 23.528 114.994 24.2 114.034 25.544C113.086 26.888 112.48 28.034 112.216 28.982L111.19 28.64C111.25 28.004 111.532 26.864 112.036 25.22C112.54 23.564 112.966 22.436 113.314 21.836L114.124 22.124C113.752 22.952 113.494 23.654 113.35 24.23C113.206 24.794 113.08 25.4 112.972 26.048C114.004 24.572 114.868 23.54 115.564 22.952C116.26 22.352 116.89 22.052 117.454 22.052C118.066 22.052 118.372 22.358 118.372 22.97C118.372 23.21 118.264 23.684 118.048 24.392C117.844 25.1 117.682 25.658 117.562 26.066C119.218 23.402 120.7 22.07 122.008 22.07C122.332 22.07 122.59 22.172 122.782 22.376C122.974 22.568 123.07 22.862 123.07 23.258C123.07 23.642 122.842 24.284 122.386 25.184C121.942 26.084 121.72 26.654 121.72 26.894C121.72 27.122 121.768 27.29 121.864 27.398C121.96 27.506 122.08 27.56 122.224 27.56C122.536 27.56 122.944 27.26 123.448 26.66ZM129.662 26.876L130.076 27.2C129.704 27.716 129.194 28.148 128.546 28.496C127.898 28.832 127.268 29 126.656 29C126.044 29 125.552 28.82 125.18 28.46C124.808 28.1 124.622 27.626 124.622 27.038C124.622 25.934 125.204 24.848 126.368 23.78C127.544 22.712 128.732 22.178 129.932 22.178C130.724 22.178 131.12 22.49 131.12 23.114C131.12 23.762 130.7 24.416 129.86 25.076C129.032 25.736 127.862 26.336 126.35 26.876C126.458 27.152 126.626 27.368 126.854 27.524C127.082 27.68 127.316 27.758 127.556 27.758C128.072 27.758 128.774 27.464 129.662 26.876ZM126.26 26.336C127.232 26 128.066 25.58 128.762 25.076C129.458 24.572 129.806 24.11 129.806 23.69C129.806 23.534 129.746 23.396 129.626 23.276C129.506 23.156 129.368 23.096 129.212 23.096C128.648 23.096 128.036 23.45 127.376 24.158C126.728 24.854 126.356 25.58 126.26 26.336ZM133.948 25.688C134.86 24.32 135.652 23.39 136.324 22.898C136.996 22.394 137.584 22.142 138.088 22.142C138.592 22.142 138.982 22.298 139.258 22.61C139.534 22.91 139.672 23.294 139.672 23.762C139.672 25.058 139.204 26.258 138.268 27.362C137.344 28.454 136.3 29 135.136 29C134.62 29 134.212 28.91 133.912 28.73L134.344 27.956C134.98 28.04 135.37 28.082 135.514 28.082C136.162 28.082 136.768 27.704 137.332 26.948C137.896 26.192 138.178 25.418 138.178 24.626C138.178 24.326 138.088 24.08 137.908 23.888C137.74 23.684 137.518 23.582 137.242 23.582C136.582 23.582 135.832 24.164 134.992 25.328C134.164 26.492 133.384 27.932 132.652 29.648C131.932 31.376 131.302 33.212 130.762 35.156L129.682 34.778C129.706 34.706 129.934 34.082 130.366 32.906C130.786 31.742 131.2 30.584 131.608 29.432C132.736 26.264 133.3 24.53 133.3 24.23C133.3 23.462 133.144 22.766 132.832 22.142L133.732 21.692C134.104 22.208 134.29 22.754 134.29 23.33C134.29 23.894 134.176 24.68 133.948 25.688ZM147.784 21.998L148.486 22.16C148.474 22.244 148.3 22.61 147.964 23.258C147.64 23.894 147.292 24.734 146.92 25.778C146.548 26.81 146.308 27.854 146.2 28.91L145.048 28.82C145.048 28.16 145.258 27.308 145.678 26.264C145.57 26.252 145.348 26.246 145.012 26.246C144.688 26.246 144.088 26.324 143.212 26.48C142.6 27.848 142.294 29.018 142.294 29.99L141.088 29.828C141.088 28.976 141.406 27.926 142.042 26.678C141.43 26.774 140.818 26.918 140.206 27.11L140.026 26.408C140.026 26.372 140.344 26.27 140.98 26.102C141.628 25.934 142.108 25.826 142.42 25.778C143.38 23.57 144.034 22.292 144.382 21.944L145.156 22.25C145.096 22.37 144.958 22.64 144.742 23.06C144.202 24.104 143.836 24.92 143.644 25.508C144.688 25.4 145.312 25.346 145.516 25.346C145.732 25.346 145.912 25.352 146.056 25.364C146.896 23.432 147.472 22.31 147.784 21.998ZM149.427 27.65L150.093 27.29C150.129 27.338 150.177 27.446 150.237 27.614C150.357 27.998 150.513 28.19 150.705 28.19C151.125 28.166 151.521 27.974 151.893 27.614C152.277 27.254 152.505 26.876 152.577 26.48C152.193 26.552 151.881 26.588 151.641 26.588C151.401 26.588 151.179 26.576 150.975 26.552C150.783 26.516 150.585 26.456 150.381 26.372C149.949 26.204 149.733 25.784 149.733 25.112C149.733 24.428 150.087 23.72 150.795 22.988C151.503 22.256 152.331 21.89 153.279 21.89C153.783 21.89 154.167 22.07 154.431 22.43C154.695 22.79 154.827 23.42 154.827 24.32C154.827 24.632 154.785 25.106 154.701 25.742C155.241 24.458 155.523 23.234 155.547 22.07L156.663 22.268C156.663 23.108 156.399 24.38 155.871 26.084C155.355 27.788 154.947 28.874 154.647 29.342L153.513 29.126C153.873 28.19 154.053 27.146 154.053 25.994C154.053 24.842 153.969 24.086 153.801 23.726C153.621 23.33 153.321 23.132 152.901 23.132C152.493 23.132 152.097 23.27 151.713 23.546C151.341 23.822 151.149 24.146 151.137 24.518C151.125 24.89 151.257 25.178 151.533 25.382C151.821 25.574 152.133 25.7 152.469 25.76C153.381 25.94 153.837 26.168 153.837 26.444C153.837 26.672 153.615 27.032 153.171 27.524C152.727 28.016 152.211 28.472 151.623 28.892C151.047 29.3 150.603 29.504 150.291 29.504C149.991 29.504 149.763 29.36 149.607 29.072C149.463 28.796 149.391 28.538 149.391 28.298C149.391 28.058 149.403 27.842 149.427 27.65ZM76.094 35.516C78.182 35.516 79.964 36.134 81.44 37.37C82.928 38.606 83.672 40.052 83.672 41.708C83.672 43.364 83.168 44.672 82.16 45.632C81.152 46.592 79.874 47.06 78.326 47.036C77.498 47.024 76.838 47.018 76.346 47.018H75.5C75.152 47.018 74.978 46.886 74.978 46.622C74.978 46.526 75.08 46.28 75.284 45.884C75.956 44.54 76.466 43.166 76.814 41.762C75.578 41.762 74.42 41.42 73.34 40.736C72.26 40.052 71.72 39.278 71.72 38.414C71.72 37.538 72.128 36.836 72.944 36.308C73.76 35.78 74.81 35.516 76.094 35.516ZM76.022 36.254C75.23 36.254 74.606 36.422 74.15 36.758C73.694 37.094 73.466 37.592 73.466 38.252C73.466 38.9 73.778 39.482 74.402 39.998C75.038 40.502 75.884 40.82 76.94 40.952C77.312 39.38 77.528 38.366 77.588 37.91L78.668 38.018C78.668 38.762 78.512 39.746 78.2 40.97C78.296 40.97 78.854 40.91 79.874 40.79L79.964 41.384C79.724 41.468 79.058 41.594 77.966 41.762C77.498 43.274 77.012 44.582 76.508 45.686C77.708 45.782 78.704 45.83 79.496 45.83C80.3 45.83 80.936 45.536 81.404 44.948C81.872 44.348 82.106 43.544 82.106 42.536C82.106 40.796 81.512 39.314 80.324 38.09C79.136 36.866 77.702 36.254 76.022 36.254ZM89.7945 44.876L90.2085 45.2C89.8365 45.716 89.3265 46.148 88.6785 46.496C88.0305 46.832 87.4005 47 86.7885 47C86.1765 47 85.6845 46.82 85.3125 46.46C84.9405 46.1 84.7545 45.626 84.7545 45.038C84.7545 43.934 85.3365 42.848 86.5005 41.78C87.6765 40.712 88.8645 40.178 90.0645 40.178C90.8565 40.178 91.2525 40.49 91.2525 41.114C91.2525 41.762 90.8325 42.416 89.9925 43.076C89.1645 43.736 87.9945 44.336 86.4825 44.876C86.5905 45.152 86.7585 45.368 86.9865 45.524C87.2145 45.68 87.4485 45.758 87.6885 45.758C88.2045 45.758 88.9065 45.464 89.7945 44.876ZM86.3925 44.336C87.3645 44 88.1985 43.58 88.8945 43.076C89.5905 42.572 89.9385 42.11 89.9385 41.69C89.9385 41.534 89.8785 41.396 89.7585 41.276C89.6385 41.156 89.5005 41.096 89.3445 41.096C88.7805 41.096 88.1685 41.45 87.5085 42.158C86.8605 42.854 86.4885 43.58 86.3925 44.336ZM96.2419 44.444L96.6739 44.804C96.3859 45.464 95.9239 45.992 95.2879 46.388C94.6519 46.784 94.0339 46.982 93.4339 46.982C92.8459 46.982 92.3539 46.796 91.9579 46.424C91.5739 46.052 91.3819 45.542 91.3819 44.894C91.3819 44.246 91.6639 43.544 92.2279 42.788C92.7919 42.032 93.5179 41.408 94.4059 40.916C95.3059 40.424 96.1879 40.178 97.0519 40.178C97.1719 40.178 97.3519 40.19 97.5919 40.214L97.5379 40.916C96.2179 40.976 95.1199 41.378 94.2439 42.122C93.3799 42.866 92.9479 43.658 92.9479 44.498C92.9479 44.846 93.0559 45.128 93.2719 45.344C93.4879 45.56 93.7699 45.668 94.1179 45.668C94.6699 45.668 95.3779 45.26 96.2419 44.444ZM102.82 44.876L103.234 45.2C102.862 45.716 102.352 46.148 101.704 46.496C101.056 46.832 100.426 47 99.8139 47C99.2019 47 98.7099 46.82 98.3379 46.46C97.9659 46.1 97.7799 45.626 97.7799 45.038C97.7799 43.934 98.3619 42.848 99.5259 41.78C100.702 40.712 101.89 40.178 103.09 40.178C103.882 40.178 104.278 40.49 104.278 41.114C104.278 41.762 103.858 42.416 103.018 43.076C102.19 43.736 101.02 44.336 99.5079 44.876C99.6159 45.152 99.7839 45.368 100.012 45.524C100.24 45.68 100.474 45.758 100.714 45.758C101.23 45.758 101.932 45.464 102.82 44.876ZM99.4179 44.336C100.39 44 101.224 43.58 101.92 43.076C102.616 42.572 102.964 42.11 102.964 41.69C102.964 41.534 102.904 41.396 102.784 41.276C102.664 41.156 102.526 41.096 102.37 41.096C101.806 41.096 101.194 41.45 100.534 42.158C99.8859 42.854 99.5139 43.58 99.4179 44.336ZM107.106 43.688C108.018 42.32 108.81 41.39 109.482 40.898C110.154 40.394 110.742 40.142 111.246 40.142C111.75 40.142 112.14 40.298 112.416 40.61C112.692 40.91 112.83 41.294 112.83 41.762C112.83 43.058 112.362 44.258 111.426 45.362C110.502 46.454 109.458 47 108.294 47C107.778 47 107.37 46.91 107.07 46.73L107.502 45.956C108.138 46.04 108.528 46.082 108.672 46.082C109.32 46.082 109.926 45.704 110.49 44.948C111.054 44.192 111.336 43.418 111.336 42.626C111.336 42.326 111.246 42.08 111.066 41.888C110.898 41.684 110.676 41.582 110.4 41.582C109.74 41.582 108.99 42.164 108.15 43.328C107.322 44.492 106.542 45.932 105.81 47.648C105.09 49.376 104.46 51.212 103.92 53.156L102.84 52.778C102.864 52.706 103.092 52.082 103.524 50.906C103.944 49.742 104.358 48.584 104.766 47.432C105.894 44.264 106.458 42.53 106.458 42.23C106.458 41.462 106.302 40.766 105.99 40.142L106.89 39.692C107.262 40.208 107.448 40.754 107.448 41.33C107.448 41.894 107.334 42.68 107.106 43.688ZM125.189 44.66L125.567 45.02C124.883 46.244 124.097 46.856 123.209 46.856C122.849 46.856 122.567 46.76 122.363 46.568C122.171 46.364 122.075 46.1 122.075 45.776C122.075 45.44 122.273 44.87 122.669 44.066C123.065 43.262 123.275 42.65 123.299 42.23C123.311 42.038 123.251 41.882 123.119 41.762C122.999 41.642 122.831 41.582 122.615 41.582C122.399 41.582 122.177 41.636 121.949 41.744C121.733 41.84 121.517 42.002 121.301 42.23C121.097 42.458 120.905 42.68 120.725 42.896C120.557 43.112 120.365 43.418 120.149 43.814C119.945 44.21 119.771 44.54 119.627 44.804C119.375 45.296 119.015 46.034 118.547 47.018L117.467 46.64C117.467 46.604 117.665 45.926 118.061 44.606C118.457 43.286 118.655 42.5 118.655 42.248C118.655 41.996 118.595 41.816 118.475 41.708C118.355 41.588 118.205 41.528 118.025 41.528C117.485 41.528 116.735 42.2 115.775 43.544C114.827 44.888 114.221 46.034 113.957 46.982L112.931 46.64C112.991 46.004 113.273 44.864 113.777 43.22C114.281 41.564 114.707 40.436 115.055 39.836L115.865 40.124C115.493 40.952 115.235 41.654 115.091 42.23C114.947 42.794 114.821 43.4 114.713 44.048C115.745 42.572 116.609 41.54 117.305 40.952C118.001 40.352 118.631 40.052 119.195 40.052C119.807 40.052 120.113 40.358 120.113 40.97C120.113 41.21 120.005 41.684 119.789 42.392C119.585 43.1 119.423 43.658 119.303 44.066C120.959 41.402 122.441 40.07 123.749 40.07C124.073 40.07 124.331 40.172 124.523 40.376C124.715 40.568 124.811 40.862 124.811 41.258C124.811 41.642 124.583 42.284 124.127 43.184C123.683 44.084 123.461 44.654 123.461 44.894C123.461 45.122 123.509 45.29 123.605 45.398C123.701 45.506 123.821 45.56 123.965 45.56C124.277 45.56 124.685 45.26 125.189 44.66ZM130.034 39.368C129.362 39.368 129.026 39.098 129.026 38.558C129.026 38.258 129.11 38.006 129.278 37.802C129.446 37.598 129.662 37.496 129.926 37.496C130.19 37.496 130.406 37.574 130.574 37.73C130.742 37.886 130.826 38.09 130.826 38.342C130.826 38.594 130.754 38.828 130.61 39.044C130.466 39.26 130.274 39.368 130.034 39.368ZM129.8 44.678L130.16 44.984C129.872 45.536 129.488 46.01 129.008 46.406C128.54 46.79 128.114 46.982 127.73 46.982C127.058 46.982 126.722 46.514 126.722 45.578C126.722 44.414 127.202 42.896 128.162 41.024C128.378 40.616 128.504 40.376 128.54 40.304L129.314 40.772C129.062 41.228 128.75 41.954 128.378 42.95C128.018 43.946 127.838 44.588 127.838 44.876C127.838 45.152 127.898 45.35 128.018 45.47C128.138 45.59 128.282 45.65 128.45 45.65C128.774 45.65 129.224 45.326 129.8 44.678ZM133.708 41.348C133.42 42.716 133.27 43.712 133.258 44.336C133.258 45.188 133.504 45.614 133.996 45.614C134.524 45.614 134.998 45.386 135.418 44.93C135.838 44.474 136.048 43.94 136.048 43.328C136.048 42.716 135.82 42.41 135.364 42.41C135.232 42.41 134.944 42.488 134.5 42.644L134.284 42.104C135.052 41.564 135.658 41.294 136.102 41.294C136.93 41.294 137.344 41.708 137.344 42.536C137.344 43.508 136.936 44.498 136.12 45.506C135.316 46.502 134.47 47 133.582 47C132.61 47 132.124 46.304 132.124 44.912C132.124 44.252 132.31 43.16 132.682 41.636L131.224 42.176L131.206 41.744C131.326 41.672 131.872 41.456 132.844 41.096C133.252 38.696 133.816 37.016 134.536 36.056C135.256 35.084 136.168 34.598 137.272 34.598C137.776 34.598 138.178 34.76 138.478 35.084C138.778 35.408 138.928 35.828 138.928 36.344C138.928 37.376 138.454 38.342 137.506 39.242C136.558 40.13 135.292 40.832 133.708 41.348ZM133.816 40.808C134.86 40.328 135.724 39.752 136.408 39.08C137.092 38.408 137.434 37.796 137.434 37.244C137.434 36.956 137.35 36.722 137.182 36.542C137.014 36.362 136.804 36.272 136.552 36.272C136.048 36.272 135.55 36.626 135.058 37.334C134.566 38.042 134.152 39.2 133.816 40.808Z" fill="#F34681"/>
<defs>
<linearGradient id="paint0_linear_501_115" x1="29.7692" y1="18.8214" x2="-4.105" y2="76.0792" gradientUnits="userSpaceOnUse">
<stop stop-color="#FF4B89"/>
<stop offset="1" stop-color="#FFE9F0"/>
</linearGradient>
<linearGradient id="paint1_linear_501_115" x1="58.3269" y1="18.8214" x2="20.7405" y2="66.4708" gradientUnits="userSpaceOnUse">
<stop stop-color="#FF4B89"/>
<stop offset="1" stop-color="#FFE9F0"/>
</linearGradient>
</defs>
</svg>
