<svg width="52" height="52" viewBox="0 0 52 52" fill="none" xmlns="http://www.w3.org/2000/svg">
<rect width="52" height="52" rx="4" fill="#FFEB98"/>
<path d="M39.9612 8.36829C38.6027 8.36829 37.2312 8.89245 36.2026 9.87993L15.5846 29.3799L14.5706 30.3066C13.3518 30.525 12.1899 31.099 11.2686 32.0616C9.91655 33.4812 9.65005 35.2174 9.13655 37.0816C8.62143 38.9474 7.96818 41.0253 6.39356 43.3216L4.76855 45.7599H7.76506C14.1253 45.7599 18.3211 42.8412 20.4612 40.7866L20.5099 40.7398C21.4882 39.7758 22.0342 38.5636 22.2373 37.3266L23.0498 36.5949L43.6678 17.0949V17.0466C44.6556 16.0951 45.2102 14.8066 45.2102 13.4632C45.2102 12.1199 44.6556 10.8314 43.6678 9.87993C42.6392 8.89245 41.3197 8.36829 39.9612 8.36829ZM39.9612 11.4399C40.4682 11.4399 40.9508 11.6583 41.3831 12.0733C42.2524 12.9079 42.2524 14.017 41.3831 14.8532L26.7061 28.7949L23.7616 25.9666L38.4873 12.0733C38.9196 11.6599 39.4526 11.4399 39.9612 11.4399ZM21.4232 28.1616L24.3693 30.9883L21.9318 33.2799L18.9857 30.4516L21.4232 28.1616ZM15.8413 33.3267C16.6603 33.3517 17.5476 33.6559 18.2284 34.2534C19.4911 35.361 19.5219 37.3 18.1764 38.5917C16.7676 39.9442 14.2667 41.6883 10.6104 42.3466C11.3904 40.7071 11.9364 39.1767 12.2858 37.91C12.8253 35.9538 13.2251 34.6122 13.6573 34.1551C14.2228 33.5654 15.0223 33.3018 15.8413 33.3267Z" fill="#121212"/>
</svg>
