<svg width="152" height="24" viewBox="0 0 152 24" fill="none" xmlns="http://www.w3.org/2000/svg">
<path d="M11.5245 3.08156C11.6741 2.6209 12.3259 2.62091 12.4755 3.08156L13.9941 7.75532C14.1949 8.37336 14.7709 8.7918 15.4207 8.7918H20.335C20.8194 8.7918 21.0207 9.4116 20.6289 9.6963L16.6531 12.5848C16.1274 12.9668 15.9074 13.6439 16.1082 14.2619L17.6268 18.9357C17.7765 19.3963 17.2493 19.7794 16.8574 19.4947L12.8817 16.6061C12.3559 16.2242 11.6441 16.2242 11.1183 16.6061L7.14258 19.4947C6.75073 19.7794 6.22349 19.3963 6.37316 18.9357L7.89176 14.2619C8.09257 13.6439 7.87258 12.9668 7.34685 12.5848L3.37111 9.6963C2.97926 9.4116 3.18064 8.7918 3.66501 8.7918H8.57929C9.22913 8.7918 9.80506 8.37336 10.0059 7.75532L11.5245 3.08156Z" fill="#FFEB98" stroke="#FFEB98"/>
<path d="M43.5245 3.08156C43.6741 2.6209 44.3259 2.62091 44.4755 3.08156L45.9941 7.75532C46.1949 8.37336 46.7709 8.7918 47.4207 8.7918H52.335C52.8194 8.7918 53.0207 9.4116 52.6289 9.6963L48.6531 12.5848C48.1274 12.9668 47.9074 13.6439 48.1082 14.2619L49.6268 18.9357C49.7765 19.3963 49.2493 19.7794 48.8574 19.4947L44.8817 16.6061C44.3559 16.2242 43.6441 16.2242 43.1183 16.6061L39.1426 19.4947C38.7507 19.7794 38.2235 19.3963 38.3732 18.9357L39.8918 14.2619C40.0926 13.6439 39.8726 12.9668 39.3469 12.5848L35.3711 9.6963C34.9793 9.4116 35.1806 8.7918 35.665 8.7918H40.5793C41.2291 8.7918 41.8051 8.37336 42.0059 7.75532L43.5245 3.08156Z" fill="#FFEB98" stroke="#FFEB98"/>
<path d="M75.5245 3.08156C75.6741 2.6209 76.3259 2.62091 76.4755 3.08156L77.9941 7.75532C78.1949 8.37336 78.7709 8.7918 79.4207 8.7918H84.335C84.8194 8.7918 85.0207 9.4116 84.6289 9.6963L80.6531 12.5848C80.1274 12.9668 79.9074 13.6439 80.1082 14.2619L81.6268 18.9357C81.7765 19.3963 81.2493 19.7794 80.8574 19.4947L76.8817 16.6061C76.3559 16.2242 75.6441 16.2242 75.1183 16.6061L71.1426 19.4947C70.7507 19.7794 70.2235 19.3963 70.3732 18.9357L71.8918 14.2619C72.0926 13.6439 71.8726 12.9668 71.3469 12.5848L67.3711 9.6963C66.9793 9.4116 67.1806 8.7918 67.665 8.7918H72.5793C73.2291 8.7918 73.8051 8.37336 74.0059 7.75532L75.5245 3.08156Z" fill="#FFEB98" stroke="#FFEB98"/>
<path d="M107.524 3.08156C107.674 2.6209 108.326 2.62091 108.476 3.08156L109.994 7.75532C110.195 8.37336 110.771 8.7918 111.421 8.7918H116.335C116.819 8.7918 117.021 9.4116 116.629 9.6963L112.653 12.5848C112.127 12.9668 111.907 13.6439 112.108 14.2619L113.627 18.9357C113.777 19.3963 113.249 19.7794 112.857 19.4947L108.882 16.6061C108.356 16.2242 107.644 16.2242 107.118 16.6061L103.143 19.4947C102.751 19.7794 102.223 19.3963 102.373 18.9357L103.892 14.2619C104.093 13.6439 103.873 12.9668 103.347 12.5848L99.3711 9.6963C98.9793 9.4116 99.1806 8.7918 99.665 8.7918H104.579C105.229 8.7918 105.805 8.37336 106.006 7.75532L107.524 3.08156Z" fill="#FFEB98" stroke="#FFEB98"/>
<path d="M139.524 3.08156C139.674 2.6209 140.326 2.62091 140.476 3.08156L141.994 7.75532C142.195 8.37336 142.771 8.7918 143.421 8.7918H148.335C148.819 8.7918 149.021 9.4116 148.629 9.6963L144.653 12.5848C144.127 12.9668 143.907 13.6439 144.108 14.2619L145.627 18.9357C145.777 19.3963 145.249 19.7794 144.857 19.4947L140.882 16.6061C140.356 16.2242 139.644 16.2242 139.118 16.6061L135.143 19.4947C134.751 19.7794 134.223 19.3963 134.373 18.9357L135.892 14.2619C136.093 13.6439 135.873 12.9668 135.347 12.5848L131.371 9.6963C130.979 9.4116 131.181 8.7918 131.665 8.7918H136.579C137.229 8.7918 137.805 8.37336 138.006 7.75532L139.524 3.08156Z" fill="#FFEB98" stroke="#FFEB98"/>
</svg>
