<svg width="24" height="24" viewBox="0 0 24 24" fill="none" xmlns="http://www.w3.org/2000/svg">
<path d="M17.7073 12.293C17.6145 12.2 17.5043 12.1263 17.383 12.076C17.2617 12.0257 17.1317 11.9998 17.0003 11.9998C16.869 11.9998 16.739 12.0257 16.6176 12.076C16.4963 12.1263 16.3861 12.2 16.2933 12.293L14.6993 13.887C13.9603 13.667 12.5813 13.167 11.7073 12.293C10.8333 11.419 10.3333 10.04 10.1133 9.30096L11.7073 7.70696C11.8003 7.61417 11.874 7.50397 11.9243 7.38265C11.9746 7.26134 12.0005 7.13129 12.0005 6.99996C12.0005 6.86862 11.9746 6.73858 11.9243 6.61726C11.874 6.49595 11.8003 6.38575 11.7073 6.29296L7.70733 2.29296C7.61455 2.20001 7.50434 2.12627 7.38303 2.07596C7.26171 2.02565 7.13167 1.99976 7.00033 1.99976C6.869 1.99976 6.73896 2.02565 6.61764 2.07596C6.49633 2.12627 6.38612 2.20001 6.29333 2.29296L3.58133 5.00496C3.20133 5.38496 2.98733 5.90696 2.99533 6.43996C3.01833 7.86396 3.39533 12.81 7.29333 16.708C11.1913 20.606 16.1373 20.982 17.5623 21.006H17.5903C18.1183 21.006 18.6173 20.798 18.9953 20.42L21.7073 17.708C21.8003 17.6152 21.874 17.505 21.9243 17.3837C21.9746 17.2623 22.0005 17.1323 22.0005 17.001C22.0005 16.8696 21.9746 16.7396 21.9243 16.6183C21.874 16.4969 21.8003 16.3867 21.7073 16.294L17.7073 12.293ZM17.5803 19.005C16.3323 18.984 12.0623 18.649 8.70733 15.293C5.34133 11.927 5.01533 7.64196 4.99533 6.41896L7.00033 4.41396L9.58633 6.99996L8.29333 8.29296C8.1758 8.41041 8.08938 8.55529 8.04189 8.71453C7.9944 8.87376 7.98733 9.04231 8.02133 9.20496C8.04533 9.31996 8.63233 12.047 10.2923 13.707C11.9523 15.367 14.6793 15.954 14.7943 15.978C14.9569 16.0129 15.1256 16.0064 15.285 15.9591C15.4444 15.9117 15.5893 15.825 15.7063 15.707L17.0003 14.414L19.5863 17L17.5803 19.005Z" fill="#121212"/>
</svg>
