<svg width="24" height="24" viewBox="0 0 24 24" fill="none" xmlns="http://www.w3.org/2000/svg">
<path d="M20.9999 9.00003H19.5799L15.8679 2.50403L14.1319 3.49603L17.2769 9.00003H6.7229L9.8689 3.49603L8.1319 2.50403L4.4199 9.00003H2.9999C2.84619 9.0002 2.69459 9.03576 2.55685 9.10396C2.4191 9.17216 2.29891 9.27116 2.2056 9.3933C2.11228 9.51543 2.04834 9.65741 2.01874 9.80824C1.98914 9.95907 1.99467 10.1147 2.0349 10.263L4.8339 20.527C4.95025 20.9498 5.20201 21.3228 5.55059 21.5889C5.89918 21.8549 6.32538 21.9993 6.7639 22H17.2369C18.1349 22 18.9289 21.395 19.1669 20.525L21.9659 10.262C22.0066 10.1136 22.0124 9.95783 21.983 9.8068C21.9535 9.65577 21.8895 9.51361 21.7959 9.39141C21.7024 9.26922 21.5819 9.17031 21.4438 9.10242C21.3057 9.03452 21.1538 8.99948 20.9999 9.00003ZM17.2359 20H6.7639L4.3099 11H19.6899L17.2359 20Z" fill="#121212"/>
<path d="M9 13H11V18H9V13ZM13 13H15V18H13V13Z" fill="#121212"/>
</svg>
