<svg aria-hidden="true" style="position: absolute; width: 0; height: 0; overflow: hidden;" version="1.1" xmlns="http://www.w3.org/2000/svg" xmlns:xlink="http://www.w3.org/1999/xlink">
<defs>
<symbol id="trash" viewBox="0 0 32 32">
<path d="M15 2H9C7.897 2 7 2.897 7 4V6H3V8H5V20C5 21.103 5.897 22 7 22H17C18.103 22 19 21.103 19 20V8H21V6H17V4C17 2.897 16.103 2 15 2ZM9 4H15V6H9V4ZM17 20H7V8H17V20Z" fill="#121212"/>
</symbol>
<symbol id="plus" viewBox="0 0 32 32">
<path d="M31.6663 18.3334H21.6663V8.33337H18.333V18.3334H8.33301V21.6667H18.333V31.6667H21.6663V21.6667H31.6663V18.3334Z" fill="#121212"/>
</symbol>
<symbol id="minus" viewBox="0 0 32 32">
<path d="M8.33301 18.3334H31.6663V21.6667H8.33301V18.3334Z" fill="#9A9A9A"/>
</symbol>
<symbol id='busket' viewBox="0 0 130 125" fill="none">
<path d="M129.955 53.4878L129.774 54.6207C129.624 55.5645 129.107 56.4094 128.338 56.9695C127.569 57.5296 126.611 57.7591 125.674 57.6074L125.592 57.5942C124.803 57.4665 123.994 57.6086 123.295 57.998C122.595 58.3873 122.045 59.0015 121.732 59.7425L96.3628 119.854C95.631 121.592 94.3425 123.032 92.7031 123.945C91.0638 124.859 89.1679 125.192 87.3182 124.893L16.5663 113.441C14.6753 113.139 12.9445 112.192 11.6634 110.759C10.3822 109.326 9.62837 107.493 9.52794 105.567L6.01457 41.1128C5.96978 40.2912 5.64729 39.5097 5.10069 38.8983C4.5541 38.2869 3.81631 37.8824 3.00991 37.7519C2.54606 37.6768 2.10143 37.5104 1.70141 37.2622C1.30138 37.0139 0.953802 36.6888 0.678513 36.3052C0.403223 35.9217 0.205613 35.4873 0.0969685 35.0268C-0.0116755 34.5663 -0.0292218 34.0888 0.0453197 33.6215L0.22596 32.4887C0.300479 32.0214 0.465636 31.5734 0.711993 31.1704C0.95835 30.7674 1.28109 30.4172 1.66178 30.1398C2.04246 29.8625 2.47365 29.6634 2.93071 29.5539C3.38778 29.4444 3.86176 29.4267 4.32561 29.5018L34.2967 34.3532C34.757 34.4277 35.2288 34.3666 35.6554 34.1772C36.0821 33.9879 36.4453 33.6783 36.7013 33.2858L57.6339 1.19642C57.9109 0.769592 58.3046 0.432632 58.7674 0.226193C59.2302 0.0197536 59.7425 -0.0473428 60.2423 0.0330027C60.6053 0.0895636 60.9518 0.224676 61.2579 0.429038C61.547 0.619567 61.796 0.865629 61.9906 1.15316C62.1852 1.44069 62.3217 1.76404 62.3922 2.10474C62.4626 2.44543 62.4658 2.79679 62.4014 3.13871C62.337 3.48063 62.2064 3.80641 62.017 4.09743L43.5666 32.3749C43.3448 32.7148 43.2111 33.1052 43.1775 33.5105C43.1439 33.9158 43.2116 34.3231 43.3743 34.6954C43.537 35.0676 43.7897 35.3928 44.1092 35.6414C44.4287 35.8901 44.8049 36.0541 45.2035 36.1187L85.0925 42.575C85.4913 42.6396 85.8997 42.6025 86.2805 42.4672C86.6614 42.3319 87.0025 42.1027 87.2728 41.8004C87.5431 41.4982 87.734 41.1325 87.8281 40.7369C87.9221 40.3412 87.9163 39.9281 87.8111 39.5353L79.0668 6.85739C78.8902 6.17862 78.9867 5.45708 79.3353 4.84958C79.6838 4.24209 80.2563 3.79774 80.9282 3.61309C81.2825 3.51559 81.6536 3.49663 82.0158 3.55754C82.5155 3.63896 82.9811 3.86432 83.3564 4.20643C83.7318 4.54854 84.0009 4.99278 84.1312 5.48554L94.0328 42.566C94.1539 43.0196 94.4025 43.4282 94.7488 43.7427C95.095 44.0572 95.5241 44.2642 95.9844 44.3387L126.99 49.3574C127.454 49.4325 127.898 49.5989 128.298 49.8471C128.698 50.0952 129.046 50.4204 129.321 50.804C129.597 51.1875 129.794 51.6219 129.903 52.0824C130.012 52.5429 130.029 53.0205 129.955 53.4878Z" fill="#F575A1"/>
<path d="M36.0421 44.6584L28.2289 43.3937C28.1656 43.3834 28.106 43.4268 28.0958 43.4906L18.7839 101.878C18.7737 101.942 18.8168 102.002 18.8801 102.012L26.6933 103.277C26.7566 103.287 26.8162 103.244 26.8264 103.18L36.1383 44.7925C36.1485 44.7287 36.1054 44.6687 36.0421 44.6584Z" fill="#FFEB98"/>
<path d="M100.721 54.942L92.9076 53.6772C92.8443 53.667 92.7847 53.7104 92.7746 53.7742L83.4627 112.162C83.4525 112.226 83.4956 112.286 83.5589 112.296L91.372 113.561C91.4353 113.571 91.4949 113.527 91.5051 113.464L100.817 55.076C100.827 55.0123 100.784 54.9523 100.721 54.942Z" fill="#FFEB98"/>
<path d="M52.1312 47.2801L44.3206 46.0125C44.2574 46.0022 44.1978 46.0456 44.1876 46.1093L34.8546 104.477C34.8444 104.541 34.8874 104.601 34.9507 104.611L42.7612 105.879C42.8245 105.889 42.8841 105.846 42.8943 105.782L52.2273 47.4142C52.2375 47.3504 52.1944 47.2904 52.1312 47.2801Z" fill="#FFEB98"/>
<path d="M68.3946 49.7092L60.5814 48.4445C60.5181 48.4342 60.4586 48.4776 60.4484 48.5414L51.1365 106.929C51.1263 106.993 51.1694 107.053 51.2327 107.063L59.0459 108.328C59.1092 108.338 59.1687 108.295 59.1789 108.231L68.4908 49.8433C68.5009 49.7795 68.4579 49.7195 68.3946 49.7092Z" fill="#FFEB98"/>
<path d="M84.5567 52.3253L76.7435 51.0605C76.6802 51.0503 76.6207 51.0937 76.6105 51.1575L67.2986 109.545C67.2884 109.609 67.3315 109.669 67.3948 109.679L75.208 110.944C75.2713 110.954 75.3308 110.911 75.341 110.847L84.6529 52.4593C84.6631 52.3956 84.62 52.3356 84.5567 52.3253Z" fill="#FFEB98"/>
</symbol>
<symbol id='vector' viewBox="0 0 190 180" fill="none" xmlns="http://www.w3.org/2000/svg">
<path d="M181.94 66.4596C181.94 66.4596 155.727 85.3112 179.153 133.369C192.847 170.948 151.946 183.177 127.117 179.322C123.235 178.72 119.767 176.716 116.689 174.275C78.2445 143.794 55.3745 145.222 36.71 145.994C33.4541 146.128 30.1648 145.991 26.9868 145.27C-12.1419 136.399 -6.26581 94.4101 28.8373 77.719C74.2244 56.1384 62.7708 36.4432 68.4503 17.952C72.5267 4.68068 113.903 -12.4482 132.807 13.4806C148.715 35.2988 158.167 28.957 166.587 27.0635C178.73 24.3327 202.471 46.9387 181.94 66.4596Z" fill="#FFEB98"/>
</symbol>
</defs>
</svg>


