<svg aria-hidden="true" style="position: absolute; width: 0; height: 0; overflow: hidden;" version="1.1" xmlns="http://www.w3.org/2000/svg" xmlns:xlink="http://www.w3.org/1999/xlink">
<defs>
<symbol id="eye" viewBox="0 0 32 32">
<path fill="none" stroke-linejoin="round" stroke-linecap="round" stroke-miterlimit="4" stroke-width="2.6667" stroke="#000" d="M1.333 16c0 0 5.333-10.667 14.667-10.667s14.667 10.667 14.667 10.667c0 0-5.333 10.667-14.667 10.667s-14.667-10.667-14.667-10.667z"></path>
<path fill="none" stroke-linejoin="round" stroke-linecap="round" stroke-miterlimit="4" stroke-width="2.6667" stroke="#000" d="M16 20c2.209 0 4-1.791 4-4s-1.791-4-4-4c-2.209 0-4 1.791-4 4s1.791 4 4 4z"></path>
</symbol>
<symbol id="success" viewBox="0 0 32 32">
<path fill="#3cbf61" style="fill: var(--color5, #3cbf61)" d="M16 31.238c-8.416 0-15.238-6.822-15.238-15.238s6.822-15.238 15.238-15.238 15.238 6.822 15.238 15.238c0 8.416-6.822 15.238-15.238 15.238zM14.238 22.834l10.773-10.775-2.155-2.155-8.619 8.62-4.311-4.311-2.155 2.155 6.466 6.466z"></path>
</symbol>
<symbol id="error" viewBox="0 0 32 32">
<path d="M16 31c-8.284 0-15-6.716-15-15s6.716-15 15-15c8.284 0 15 6.716 15 15s-6.716 15-15 15zM16 13.879l-4.243-4.243-2.121 2.121 4.243 4.243-4.243 4.243 2.121 2.121 4.243-4.243 4.243 4.243 2.121-2.121-4.243-4.243 4.243-4.243-2.121-2.121-4.243 4.243z"></path>
</symbol>
<symbol id="eye-off" viewBox="0 0 32 32">
<path fill="none" stroke-linejoin="round" stroke-linecap="round" stroke-miterlimit="4" stroke-width="2.6667" stroke="#000" d="M23.92 23.92c-2.279 1.737-5.055 2.7-7.92 2.747-9.333 0-14.667-10.667-14.667-10.667 1.659-3.091 3.959-5.791 6.747-7.92M13.2 5.653c0.918-0.215 1.857-0.322 2.8-0.32 9.333 0 14.667 10.667 14.667 10.667-0.809 1.514-1.775 2.94-2.88 4.253M18.827 18.827c-0.366 0.393-0.808 0.708-1.298 0.927s-1.020 0.336-1.557 0.346-1.071-0.089-1.569-0.291c-0.498-0.201-0.951-0.501-1.33-0.88s-0.679-0.832-0.88-1.33c-0.201-0.498-0.3-1.032-0.29-1.569s0.127-1.067 0.346-1.557c0.219-0.491 0.534-0.932 0.927-1.299"></path>
<path fill="none" stroke-linejoin="round" stroke-linecap="butt" stroke-miterlimit="4" stroke-width="2.6667" stroke="#000" d="M1.333 1.333l29.333 29.333"></path>
</symbol>
</defs>
</svg>
