<svg width="25" height="24" viewBox="0 0 25 24" fill="none" xmlns="http://www.w3.org/2000/svg">
<path d="M23.0005 12.2332C23.0005 11.3699 22.9291 10.7399 22.7744 10.0865H12.7148V13.9832H18.6196C18.5006 14.9515 17.8577 16.4099 16.4291 17.3898L16.4091 17.5203L19.5897 19.935L19.8101 19.9565C21.8338 18.1249 23.0005 15.4298 23.0005 12.2332Z" fill="#4285F4"/>
<path d="M12.714 22.5001C15.6068 22.5001 18.0353 21.5667 19.8092 19.9567L16.4282 17.39C15.5235 18.0083 14.3092 18.44 12.714 18.44C9.88069 18.44 7.47596 16.6083 6.61874 14.0767L6.49309 14.0871L3.18583 16.5955L3.14258 16.7133C4.90446 20.1433 8.5235 22.5001 12.714 22.5001Z" fill="#34A853"/>
<path d="M6.62095 14.0767C6.39476 13.4234 6.26386 12.7233 6.26386 12C6.26386 11.2767 6.39476 10.5767 6.60905 9.92337L6.60306 9.78423L3.25435 7.2356L3.14478 7.28667C2.41862 8.71002 2.00195 10.3084 2.00195 12C2.00195 13.6917 2.41862 15.29 3.14478 16.7133L6.62095 14.0767Z" fill="#FBBC05"/>
<path d="M12.7141 5.55997C14.7259 5.55997 16.083 6.41163 16.8569 7.12335L19.8807 4.23C18.0236 2.53834 15.6069 1.5 12.7141 1.5C8.52353 1.5 4.90447 3.85665 3.14258 7.28662L6.60686 9.92332C7.47598 7.39166 9.88073 5.55997 12.7141 5.55997Z" fill="#EB4335"/>
</svg>
